<svg height="512" viewBox="0 0 512 512" width="512" xmlns="http://www.w3.org/2000/svg"><g><g><g fill="#ffdaaa"><path d="m352 136v96a72.006 72.006 0 0 1 -72 72h-48a72.006 72.006 0 0 1 -72-72v-96l.54-1h-.53a95.9 95.9 0 0 1 43.63-79.48 59.891 59.891 0 0 0 48.36 24.48h52v-4a59.745 59.745 0 0 0 -6.11-26.4 96 96 0 0 1 54.1 85.4h-.62z"/><path d="m160.54 135-.54 1v-1z"/><path d="m352 135v1l-.63-1z"/><path d="m496 496h-88v-147.79l8.81 1.85a80.021 80.021 0 0 1 60.44 56.31z"/><path d="m104 348.21v147.79h-88l18.75-89.63a80.021 80.021 0 0 1 60.44-56.31z"/></g><path d="m408 348.21v147.79h-304v-147.79l43.31-9.12a112.02 112.02 0 0 0 217.38 0z" fill="#2d2d30"/><path d="m148 160h12a0 0 0 0 1 0 0v64a0 0 0 0 1 0 0h-12a20 20 0 0 1 -20-20v-24a20 20 0 0 1 20-20z" fill="#ffdaaa"/><path d="m372 160h12a0 0 0 0 1 0 0v64a0 0 0 0 1 0 0h-12a20 20 0 0 1 -20-20v-24a20 20 0 0 1 20-20z" fill="#ffdaaa" transform="matrix(-1 0 0 -1 736 384)"/><path d="m352 136-.63-1h.62c.01.33.01.67.01 1z" fill="#ffdaaa"/><path d="m160.54 135-.54 1c0-.33 0-.67.01-1z" fill="#ffdaaa"/><path d="m304 76v4h-52a59.992 59.992 0 0 1 -60-60v-4h52a59.973 59.973 0 0 1 60 60z" fill="#ff5023"/><path d="m364.69 339.09a112.02 112.02 0 0 1 -217.38 0l52.69-11.09v-24h112v24z" fill="#ffdaaa"/></g><g><path d="m503.83 494.36-18.75-89.63a5.728 5.728 0 0 0 -.14-.56 87.824 87.824 0 0 0 -66.48-61.94l-98.46-20.72v-20.27a80.03 80.03 0 0 0 40-69.24h4a28.031 28.031 0 0 0 28-28v-24a28.031 28.031 0 0 0 -28-28h-4v-17c0-.18-.02-.36-.03-.54a103.885 103.885 0 0 0 -56.19-90.85 68.065 68.065 0 0 0 -59.78-35.61h-52a8 8 0 0 0 -8 8v4a67.463 67.463 0 0 0 8.81 33.4 103.675 103.675 0 0 0 -40.79 81.15c-.01.15-.02.3-.02.45v17h-4a28.031 28.031 0 0 0 -28 28v24a28.031 28.031 0 0 0 28 28h4a80.03 80.03 0 0 0 40 69.24v20.27l-98.46 20.72a87.824 87.824 0 0 0 -66.48 61.94 5.728 5.728 0 0 0 -.14.56l-18.75 89.63a8 8 0 0 0 7.83 9.64h480a8 8 0 0 0 7.83-9.64zm-143.83-326.36h4a12.01 12.01 0 0 1 12 12v24a12.01 12.01 0 0 1 -12 12h-4zm-208 48h-4a12.01 12.01 0 0 1 -12-12v-24a12.01 12.01 0 0 1 12-12h4zm92-192a52.071 52.071 0 0 1 51.85 48h-43.85a52.071 52.071 0 0 1 -51.85-48zm-76 208v-88h8a8 8 0 0 0 0-16h-7.64c.25-2.7.62-5.36 1.1-8h22.54a8 8 0 0 0 0-16h-18.01a87.786 87.786 0 0 1 28.28-37.69 67.8 67.8 0 0 0 49.73 21.69h52a8 8 0 0 0 8-8v-4a66.923 66.923 0 0 0 -.53-8.31 88.058 88.058 0 0 1 18.74 21 86.738 86.738 0 0 1 7.77 15.31h-17.98a8 8 0 0 0 0 16h22.54q.72 3.96 1.09 8h-7.63a8 8 0 0 0 0 16h8v88a64.072 64.072 0 0 1 -64 64h-48a64.072 64.072 0 0 1 -64-64zm33.65 103.83a8 8 0 0 0 6.35-7.82v-19.69a79.673 79.673 0 0 0 24 3.68h48a79.673 79.673 0 0 0 24-3.68v19.69a8 8 0 0 0 6.35 7.82l44.25 9.31a104.03 104.03 0 0 1 -197.2 0zm-105.65 152.17h-70.15l16.67-79.7a71.839 71.839 0 0 1 53.48-50.22zm304 0h-288v-133.3l29.67-6.25a120 120 0 0 0 228.66 0l29.67 6.25zm16 0v-129.92a71.839 71.839 0 0 1 53.48 50.22l16.67 79.7z"/><path d="m280 256a8 8 0 0 0 0-16h-48a8 8 0 0 0 0 16z"/><path d="m232 184a8 8 0 0 0 -8-8h-16a8 8 0 0 0 0 16h16a8 8 0 0 0 8-8z"/><path d="m288 192h16a8 8 0 0 0 0-16h-16a8 8 0 0 0 0 16z"/><path d="m264 264h-16a8 8 0 0 0 0 16h16a8 8 0 0 0 0-16z"/></g></g></svg>