<svg id="Capa_1" enable-background="new 0 0 512 512" height="512" viewBox="0 0 512 512" width="512" xmlns="http://www.w3.org/2000/svg"><g><path d="m182.586 230.273h18.5c8.833 0 15.993-7.16 15.993-15.993v-1.087c0-8.833-7.16-15.993-15.993-15.993h-18.5z" fill="#ffcebf"/><path d="m295.102 0c-14.154 0-26.19 8.699-28.23 22.284-2.039-13.585-14.076-22.284-28.23-22.284-23.924-.001-35.089 27.896-25.488 46.831 8.172 16.118 39.046 39.337 49.909 47.182 2.273 1.642 5.345 1.642 7.618 0 10.863-7.846 41.736-31.065 49.909-47.182 9.601-18.935-1.564-46.832-25.488-46.831z" fill="#fe7ab6"/><path d="m320.585 46.827c-8.171 16.126-39.036 39.344-49.907 47.186-2.268 1.642-5.338 1.642-7.616 0-3.172-2.289-8.037-5.882-13.549-10.234 1.488.103 2.987-.298 4.25-1.201 10.87-7.853 41.736-31.071 49.917-47.187 5.563-10.983 4.147-24.974-2.7-34.797 19.811 4.138 28.392 28.938 19.605 46.233z" fill="#fe5ca7"/><path d="m182.228 69.577c4.358-28.311-32.278-46.992-52.612-26.686-11.88 11.864-14.409 31.979-5.836 46.415l24.444 12.399c16.713-1.61 31.449-15.533 34.004-32.128z" fill="#596c76"/><path d="m182.229 69.574c-2.556 16.598-17.296 30.517-34.007 32.128l-16.967-8.602c16.444-1.899 30.845-15.674 33.37-32.056 1.642-10.655-2.525-19.944-9.443-26.298 15.797 2.504 29.839 16.69 27.047 34.828z" fill="#465a61"/><path d="m201.35 423.34v88.66h-193.4v-91.84c0-51.65 41.87-93.52 93.52-93.52h3.18c26.71 0 50.88 10.82 68.38 28.32s28.32 41.67 28.32 68.38z" fill="#fe7ab6"/><path d="m201.35 423.34v88.66h-20.59v-88.66c0-26.71-7.99-50.88-25.49-68.38-15.54-15.54-36.34-25.81-59.5-27.92 2.92-.27 5.89-.4 8.88-.4 26.71 0 50.88 10.82 68.38 28.32s28.32 41.67 28.32 68.38z" fill="#fe5ca7"/><path d="m123.164 335.222v-29.436h-37.023v29.436c0 10.224 8.288 18.512 18.512 18.512 10.223 0 18.511-8.288 18.511-18.512z" fill="#ffcebf"/><g><g><path d="m58.499 417.647v94.353h-15.397v-94.352c0-4.25 3.449-7.698 7.698-7.698 4.25-.001 7.699 3.448 7.699 7.697z" fill="#fe3d97"/></g><g><path d="m166.206 417.647v94.353h-15.397v-94.352c0-4.25 3.439-7.698 7.698-7.698 4.25-.001 7.699 3.448 7.699 7.697z" fill="#fe3d97"/></g></g><path d="m189.819 178.575v48.865c0 47.038-38.129 85.167-85.167 85.167-47.037 0-85.167-38.129-85.167-85.167v-53.017l9.245-17.332 77.96-17.565h43.956z" fill="#ffcebf"/><path d="m189.821 178.575v48.868c0 47.034-38.134 85.168-85.168 85.168-3.234 0-6.431-.182-9.569-.536 42.641-4.9 75.819-42.929 75.819-89.101v-44.734z" fill="#ffb09e"/><path d="m127.095 148.809c2.264-1.522 5.339-.803 6.685 1.571 3.512 6.196 9.786 17.239 12.403 21.682 10.368 17.601 20.871 29.932 33.759 43.622 1.628 1.729 9.878 10.301 9.878 10.301 0-.001 0-54.146 0-54.146 0-18.784-6.84-37.263-19.319-52.054-12.281-14.557-29.646-25.166-48.942-29.777-5.662-1.353-11.309-1.942-16.906-1.872-5.597-.07-11.245.519-16.906 1.872-19.295 4.612-36.661 15.221-48.942 29.777-12.475 14.786-19.315 39.675-19.319 58.455.026-.766 22.482-.004 22.6 0 22.253.757 44.681-3.849 64.113-15.556 2.215-1.334 14.347-9.471 20.896-13.875z" fill="#596c76"/><path d="m189.815 171.84v54.146s-8.243-8.571-9.875-10.306c-2.997-3.182-5.871-6.292-8.633-9.413v-34.427c0-18.784-6.836-37.261-19.318-52.052-12.276-14.565-29.644-25.169-48.942-29.778-2.556-.616-5.101-1.068-7.647-1.376 3.09-.38 6.179-.544 9.248-.503 5.605-.072 11.25.524 16.906 1.879 19.297 4.609 36.665 15.212 48.942 29.778 12.483 14.791 19.319 33.268 19.319 52.052z" fill="#465a61"/><path d="m176.505 100.792c1.401-3.4-.021-7.305-3.301-8.968l-56.207-28.51c-3.28-1.664-7.27-.505-9.186 2.635-2.862 4.69-6.386 11.81-6.7 18.834-.124 2.776 1.362 5.375 3.84 6.632l52.696 26.729c2.478 1.257 5.453.921 7.62-.819 5.482-4.404 9.145-11.453 11.238-16.533z" fill="#8ac9fe"/><path d="m176.502 100.788c-2.094 5.081-5.748 12.133-11.24 16.536-2.166 1.735-5.132 2.073-7.616.821l-12.708-6.446c1.971.339 4.034-.175 5.646-1.478 5.481-4.404 9.146-11.455 11.24-16.536 1.396-3.398-.021-7.298-3.305-8.961l14.689 7.103c3.273 1.663 4.7 5.564 3.294 8.961z" fill="#60b7ff"/><path d="m487.52 403.23v108.77h-193.4v-111.94c0-51.65 41.87-93.52 93.52-93.52h4.01c26.37.22 50.23 11 67.55 28.31 17.5 17.51 28.32 41.68 28.32 68.38z" fill="#c1e9af"/><path d="m487.52 403.23v108.77h-20.53v-108.77c2.77-26.7-8.06-50.87-25.55-68.38-15.54-15.53-36.34-25.8-59.5-27.91 2.68-.25 5.39-.39 8.13-.4.25-.01.5-.01.75-.01.28 0 .55 0 .83.01 26.37.22 50.23 11 67.55 28.31 17.5 17.51 28.32 41.68 28.32 68.38z" fill="#ade194"/><path d="m409.331 315.118v-29.436h-37.023v29.436c0 10.224 8.288 18.512 18.512 18.512 10.223 0 18.511-8.288 18.511-18.512z" fill="#ffcebf"/><g><g><path d="m344.666 397.549v114.451h-15.397v-114.451c0-4.249 3.449-7.698 7.698-7.698s7.699 3.449 7.699 7.698z" fill="#80d261"/></g><g><path d="m452.363 397.549v114.451h-15.397v-114.451c0-4.249 3.449-7.698 7.698-7.698 4.26 0 7.699 3.449 7.699 7.698z" fill="#80d261"/></g></g><path d="m475.986 119.422v87.914c0 47.038-38.129 85.167-85.167 85.167s-85.167-38.129-85.167-85.167v-47.31l12.777-23.039 74.428-17.565z" fill="#ffcebf"/><path d="m475.987 119.589v87.75c0 47.034-38.134 85.168-85.168 85.168-3.234 0-6.431-.182-9.569-.536 42.641-4.9 75.819-42.929 75.819-89.101v-83.615z" fill="#ffb09e"/><path d="m310.778 210.169h-16.39c-8.833 0-15.993-7.16-15.993-15.993v-1.087c0-8.833 7.16-15.993 15.993-15.993h16.39z" fill="#ffcebf"/><path d="m390.819 68.031c-5.597-.07-11.245.519-16.906 1.872-19.295 4.612-36.661 15.221-48.942 29.777-12.478 14.791-19.319 33.27-19.319 52.054v24.933c11.913-1.014 18.578-3.174 24.788-6.764 8.793-5.083 15.822-12.734 20.56-21.718 2.088-3.959 4.053-8.165 5.003-11.498h119.983s27.811-14.632 28.062-54.643c.048-7.715-6.15-14.019-13.864-14.018z" fill="#d77f4a"/><path d="m504.046 82.045c-.246 40.011-28.064 54.639-28.064 54.639h-119.983c-.944 3.336-2.915 7.545-4.999 11.507-4.742 8.982-11.763 16.629-20.56 21.71-6.21 3.593-12.872 5.758-24.789 6.764v-20.981c3.962-1.129 7.196-2.566 10.316-4.373 8.797-5.081 15.818-12.728 20.56-21.72.444-.843.884-1.697 1.309-2.552 2.716-5.462 8.258-8.944 14.358-8.944h104.763c3.312 0 6.535-1.076 9.153-3.103 7.498-5.808 21.684-20.217 23.298-46.967h.78c7.709-.001 13.909 6.301 13.858 14.02z" fill="#c86d36"/><g><g><g><path d="m371.257 206.217c-6.34 0-12.363-2.747-16.524-7.535-2.789-3.21-2.448-8.072.762-10.861 3.21-2.79 8.072-2.448 10.86.761 1.236 1.422 3.022 2.237 4.902 2.237 1.816 0 3.5-.731 4.741-2.059 2.904-3.105 7.776-3.268 10.881-.365 3.105 2.904 3.27 7.776.366 10.882-4.124 4.411-9.952 6.94-15.988 6.94z" fill="#596c76"/></g><g><path d="m428.274 206.217c-6.34 0-12.363-2.747-16.524-7.535-2.789-3.21-2.448-8.072.762-10.861 3.21-2.79 8.072-2.448 10.86.761 1.236 1.422 3.022 2.237 4.902 2.237 1.816 0 3.499-.731 4.739-2.058 2.901-3.106 7.773-3.272 10.881-.368 3.106 2.903 3.271 7.775.368 10.881-4.123 4.413-9.951 6.943-15.988 6.943z" fill="#596c76"/></g></g><g><g><path d="m67.548 223.878c-6.34 0-12.363-2.747-16.524-7.536-2.789-3.21-2.448-8.072.761-10.861 3.21-2.789 8.072-2.446 10.861.762 1.235 1.422 3.022 2.238 4.901 2.238 1.816 0 3.499-.731 4.74-2.058 2.904-3.106 7.776-3.269 10.881-.367 3.106 2.904 3.27 7.775.367 10.881-4.123 4.411-9.95 6.941-15.987 6.941z" fill="#596c76"/></g><g><path d="m124.564 223.878c-6.34 0-12.363-2.747-16.524-7.536-2.789-3.21-2.447-8.072.762-10.861 3.211-2.789 8.073-2.446 10.861.762 1.236 1.422 3.022 2.238 4.902 2.238 1.816 0 3.499-.731 4.74-2.058 2.905-3.106 7.777-3.269 10.881-.367 3.106 2.904 3.27 7.775.367 10.881-4.124 4.411-9.952 6.941-15.989 6.941z" fill="#596c76"/></g></g></g></g></svg>