<svg height="512pt" viewBox="-48 0 512 512" width="512pt" xmlns="http://www.w3.org/2000/svg"><path d="m7.722656 52.480469v436.289062c0 8.722657 7.070313 15.796875 15.792969 15.796875h369.472656c8.722657 0 15.792969-7.074218 15.792969-15.796875v-436.289062zm0 0" fill="#e4eaf8"/><path d="m37.558594 488.773438v-436.292969h-29.835938v436.289062c0 8.722657 7.070313 15.796875 15.792969 15.796875h29.835937c-8.722656 0-15.792968-7.074218-15.792968-15.792968zm0 0" fill="#c7d2e5"/><g fill="#1dd1a1"><path d="m125.171875 279.535156h-72.222656c-4.578125 0-8.289063 3.714844-8.289063 8.289063v91.023437c0 4.578125 3.710938 8.289063 8.289063 8.289063h72.222656c4.574219 0 8.289063-3.710938 8.289063-8.289063v-91.023437c0-4.574219-3.714844-8.289063-8.289063-8.289063zm0 0"/><path d="m244.363281 279.535156h-72.222656c-4.578125 0-8.289063 3.714844-8.289063 8.289063v91.023437c0 4.578125 3.710938 8.289063 8.289063 8.289063h72.222656c4.578125 0 8.289063-3.710938 8.289063-8.289063v-91.023437c0-4.574219-3.710938-8.289063-8.289063-8.289063zm0 0"/><path d="m363.554688 279.535156h-72.222657c-4.574219 0-8.285156 3.714844-8.285156 8.289063v91.023437c0 4.578125 3.707031 8.289063 8.285156 8.289063h72.222657c4.578124 0 8.289062-3.710938 8.289062-8.289063v-91.023437c0-4.574219-3.710938-8.289063-8.289062-8.289063zm0 0"/></g><path d="m74.664062 378.847656v-91.023437c0-4.574219 3.710938-8.289063 8.285157-8.289063h-30c-4.578125 0-8.289063 3.714844-8.289063 8.289063v91.023437c0 4.578125 3.710938 8.289063 8.289063 8.289063h30c-4.574219 0-8.285157-3.710938-8.285157-8.289063zm0 0" fill="#15ba8b"/><path d="m193.855469 378.847656v-91.023437c0-4.574219 3.710937-8.289063 8.289062-8.289063h-30.003906c-4.578125 0-8.289063 3.714844-8.289063 8.289063v91.023437c0 4.578125 3.710938 8.289063 8.289063 8.289063h30.003906c-4.578125 0-8.289062-3.710938-8.289062-8.289063zm0 0" fill="#15ba8b"/><path d="m313.046875 378.847656v-91.023437c0-4.574219 3.710937-8.289063 8.289063-8.289063h-30.003907c-4.574219 0-8.285156 3.714844-8.285156 8.289063v91.023437c0 4.578125 3.710937 8.289063 8.285156 8.289063h30.003907c-4.578126 0-8.289063-3.710938-8.289063-8.289063zm0 0" fill="#15ba8b"/><path d="m7.722656 55.480469h401.058594v165.492187h-401.058594zm0 0" fill="#8ac2ff"/><path d="m7.722656 55.480469h30v165.492187h-30zm0 0" fill="#54a0ff"/><path d="m392.988281 7.566406h-369.472656c-8.722656 0-15.792969 7.070313-15.792969 15.792969v32.121094h401.058594v-32.121094c0-8.722656-7.070312-15.792969-15.792969-15.792969zm0 0" fill="#54a0ff"/><path d="m56.027344 7.566406h-32.511719c-8.722656 0-15.792969 7.070313-15.792969 15.792969v32.121094h48.304688zm0 0" fill="#ff6b6b"/><path d="m53.519531 7.566406h-30.003906c-8.722656 0-15.792969 7.070313-15.792969 15.792969v32.121094h30v-32.121094c0-8.722656 7.074219-15.792969 15.796875-15.792969zm0 0" fill="#ee5253"/><path d="m369.558594 88.136719h-322.613282c-4.078124 0-7.386718 3.308593-7.386718 7.386719v87.191406c0 4.078125 3.308594 7.386718 7.386718 7.386718h322.613282c4.078125 0 7.386718-3.308593 7.386718-7.386718v-87.191406c0-4.078126-3.308593-7.386719-7.386718-7.386719zm0 0" fill="#54a0ff"/><path d="m69.558594 182.714844v-87.191406c0-4.078126 3.308594-7.386719 7.390625-7.386719h-30.003907c-4.078124 0-7.386718 3.308593-7.386718 7.386719v87.191406c0 4.078125 3.308594 7.386718 7.386718 7.386718h30.003907c-4.082031 0-7.390625-3.308593-7.390625-7.386718zm0 0" fill="#338def"/><path d="m23.292969 512h369.472656c12.84375 0 23.292969-10.449219 23.292969-23.292969 0-6.242187 0-451.105469 0-465.414062 0-12.84375-10.449219-23.292969-23.292969-23.292969-4.605469 0-362.433594 0-369.472656 0-12.84375 0-23.292969 10.449219-23.292969 23.292969v465.414062c0 12.84375 10.449219 23.292969 23.292969 23.292969zm377.765625-449.085938v150.492188h-386.058594v-150.492188zm-8.292969 434.085938h-369.472656c-4.570313 0-8.292969-3.722656-8.292969-8.292969v-260.300781h386.058594v260.300781c0 4.570313-3.71875 8.292969-8.292969 8.292969zm8.25-474.550781c.027344.277343.042969.558593.042969.84375v24.621093h-337.753906v-32.914062h329.460937c4.285156 0 7.824219 3.269531 8.25 7.449219zm-386.015625.84375c0-4.570313 3.722656-8.292969 8.292969-8.292969h25.011719v32.914062h-33.304688zm0 0"/><path d="m124.949219 271.96875h-72.222657c-8.707031 0-15.789062 7.085938-15.789062 15.789062v91.023438c0 8.707031 7.082031 15.789062 15.789062 15.789062h72.222657c8.707031 0 15.789062-7.082031 15.789062-15.789062v-91.023438c0-8.703124-7.082031-15.789062-15.789062-15.789062zm.789062 106.8125c0 .4375-.355469.789062-.789062.789062h-72.222657c-.433593 0-.789062-.351562-.789062-.789062v-91.023438c0-.433593.355469-.785156.789062-.785156h72.222657c.433593 0 .789062.351563.789062.785156zm0 0"/><path d="m244.140625 271.96875h-72.222656c-8.707031 0-15.789063 7.085938-15.789063 15.789062v91.023438c0 8.707031 7.082032 15.789062 15.789063 15.789062h72.222656c8.707031 0 15.789063-7.082031 15.789063-15.789062v-91.023438c0-8.703124-7.082032-15.789062-15.789063-15.789062zm.789063 106.8125c0 .4375-.355469.789062-.789063.789062h-72.222656c-.433594 0-.789063-.351562-.789063-.789062v-91.023438c0-.433593.355469-.785156.789063-.785156h72.222656c.433594 0 .789063.351563.789063.785156zm0 0"/><path d="m67.445312 258h42.785157c4.140625 0 7.5-3.355469 7.5-7.5 0-4.140625-3.359375-7.5-7.5-7.5h-42.785157c-4.140624 0-7.5 3.359375-7.5 7.5 0 4.144531 3.359376 7.5 7.5 7.5zm0 0"/><path d="m186.636719 258h42.785156c4.140625 0 7.5-3.355469 7.5-7.5 0-4.140625-3.359375-7.5-7.5-7.5h-42.785156c-4.140625 0-7.5 3.359375-7.5 7.5 0 4.144531 3.359375 7.5 7.5 7.5zm0 0"/><path d="m305.832031 258h42.78125c4.144531 0 7.5-3.355469 7.5-7.5 0-4.140625-3.355469-7.5-7.5-7.5h-42.78125c-4.144531 0-7.503906 3.359375-7.503906 7.5 0 4.144531 3.359375 7.5 7.503906 7.5zm0 0"/><path d="m133.238281 407.273438h-88.800781c-4.140625 0-7.5 3.359374-7.5 7.5 0 4.140624 3.359375 7.5 7.5 7.5h88.800781c4.140625 0 7.5-3.359376 7.5-7.5 0-4.140626-3.359375-7.5-7.5-7.5zm0 0"/><path d="m133.238281 433.066406h-88.800781c-4.140625 0-7.5 3.355469-7.5 7.5 0 4.140625 3.359375 7.5 7.5 7.5h88.800781c4.140625 0 7.5-3.359375 7.5-7.5 0-4.144531-3.359375-7.5-7.5-7.5zm0 0"/><path d="m133.238281 458.859375h-88.800781c-4.140625 0-7.5 3.355469-7.5 7.5 0 4.140625 3.359375 7.5 7.5 7.5h88.800781c4.140625 0 7.5-3.359375 7.5-7.5 0-4.144531-3.359375-7.5-7.5-7.5zm0 0"/><path d="m252.429688 407.273438h-88.796876c-4.144531 0-7.503906 3.359374-7.503906 7.5 0 4.140624 3.359375 7.5 7.503906 7.5h88.796876c4.140624 0 7.5-3.359376 7.5-7.5 0-4.140626-3.359376-7.5-7.5-7.5zm0 0"/><path d="m252.429688 433.066406h-88.796876c-4.144531 0-7.503906 3.355469-7.503906 7.5 0 4.140625 3.359375 7.5 7.503906 7.5h88.796876c4.140624 0 7.5-3.359375 7.5-7.5 0-4.144531-3.359376-7.5-7.5-7.5zm0 0"/><path d="m252.429688 458.859375h-88.796876c-4.144531 0-7.503906 3.355469-7.503906 7.5 0 4.140625 3.359375 7.5 7.503906 7.5h88.796876c4.140624 0 7.5-3.359375 7.5-7.5 0-4.144531-3.359376-7.5-7.5-7.5zm0 0"/><path d="m371.621094 407.273438h-88.796875c-4.144531 0-7.5 3.359374-7.5 7.5 0 4.140624 3.355469 7.5 7.5 7.5h88.796875c4.144531 0 7.5-3.359376 7.5-7.5 0-4.140626-3.355469-7.5-7.5-7.5zm0 0"/><path d="m371.621094 433.066406h-88.796875c-4.144531 0-7.5 3.355469-7.5 7.5 0 4.140625 3.355469 7.5 7.5 7.5h88.796875c4.144531 0 7.5-3.359375 7.5-7.5 0-4.144531-3.355469-7.5-7.5-7.5zm0 0"/><path d="m371.621094 458.859375h-88.796875c-4.144531 0-7.5 3.355469-7.5 7.5 0 4.140625 3.355469 7.5 7.5 7.5h88.796875c4.144531 0 7.5-3.359375 7.5-7.5 0-4.144531-3.355469-7.5-7.5-7.5zm0 0"/><path d="m46.722656 197.535156h322.613282c8.210937 0 14.886718-6.675781 14.886718-14.886718v-87.191407c0-8.207031-6.675781-14.886719-14.886718-14.886719h-143.804688c-4.144531 0-7.5 3.359376-7.5 7.5 0 4.140626 3.355469 7.5 7.5 7.5h143.691406v86.964844h-322.386718v-86.964844h143.691406c4.144531 0 7.5-3.359374 7.5-7.5 0-4.140624-3.355469-7.5-7.5-7.5h-143.804688c-8.207031 0-14.886718 6.679688-14.886718 14.886719v87.191407c0 8.210937 6.679687 14.886718 14.886718 14.886718zm0 0"/><path d="m363.332031 271.96875h-72.21875c-8.707031 0-15.789062 7.085938-15.789062 15.789062v91.023438c0 8.707031 7.082031 15.789062 15.789062 15.789062h72.21875c8.707031 0 15.789063-7.082031 15.789063-15.789062v-28.007812c0-4.144532-3.355469-7.5-7.5-7.5-4.144532 0-7.5 3.355468-7.5 7.5v28.007812c0 .4375-.355469.789062-.789063.789062h-72.21875c-.4375 0-.789062-.351562-.789062-.789062v-91.023438c0-.433593.351562-.785156.789062-.785156h72.21875c.4375 0 .789063.351563.789063.785156v28.011719c0 4.144531 3.355468 7.5 7.5 7.5 4.144531 0 7.5-3.355469 7.5-7.5v-28.011719c0-8.703124-7.082032-15.789062-15.789063-15.789062zm0 0"/></svg>